<mxfile host="app.diagrams.net" modified="2023-10-31T23:14:19.991Z" agent="Mozilla/5.0 (Macintosh; Intel Mac OS X 10_15_7) AppleWebKit/537.36 (KHTML, like Gecko) Chrome/118.0.0.0 Safari/537.36" etag="8XG6cCvDA_dW1EMy4Tzo" version="21.6.8" type="github">
  <diagram name="Page-1" id="DqY_FYKDpOw-HVrlJvUc">
    <mxGraphModel dx="1807" dy="693" grid="1" gridSize="10" guides="1" tooltips="1" connect="1" arrows="1" fold="1" page="1" pageScale="1" pageWidth="850" pageHeight="1100" math="0" shadow="0">
      <root>
        <mxCell id="0" />
        <mxCell id="1" parent="0" />
        <mxCell id="o3FGxvq66PMa-3vnUGyi-1" value="Request to ATROPS" style="ellipse;whiteSpace=wrap;html=1;" vertex="1" parent="1">
          <mxGeometry x="70" y="40" width="120" height="80" as="geometry" />
        </mxCell>
      </root>
    </mxGraphModel>
  </diagram>
</mxfile>
